<svg width="218" height="80" viewBox="0 0 218 80" fill="none" xmlns="http://www.w3.org/2000/svg">
<path fill-rule="evenodd" clip-rule="evenodd" d="M28.663 0L28.2793 0.0163827C25.3543 0.0984064 22.8592 1.39421 20.3569 2.83122L20.0112 3.03386C19.9845 3.04925 19.958 3.06451 19.9316 3.07965C19.3087 3.43797 18.7896 3.73655 18.5406 4.4609L18.9668 4.24711L19.5863 3.93801C22.3832 2.53753 24.928 1.27297 28.1268 1.49789C28.1513 1.85998 28.163 2.03206 28.1272 2.19359C28.0947 2.33986 28.0232 2.47749 27.8871 2.73974C26.0886 5.68501 22.2285 8.30087 19.0512 9.51067L18.5406 9.68973C17.137 10.2021 15.8621 10.5541 14.3575 10.3869C13.9649 10.2281 13.9649 10.2281 13.7257 9.76599L13.486 9.34114C12.3694 9.36728 11.4926 9.5496 10.5108 10.086L10.0001 10.3869C9.63249 10.6017 9.26586 10.8177 8.90101 11.0372L8.51863 11.2693L8.14511 11.4929L7.79422 11.7111C7.29541 12.0175 7.09331 12.288 6.86283 12.827C7.58426 12.7449 8.09192 12.4763 8.70518 12.1148C10.3363 11.1413 11.8798 10.2394 13.8346 10.3869C13.8441 10.5249 13.8495 10.6026 13.8652 10.6782C13.8855 10.7756 13.923 10.8694 14.0089 11.0841C14.2057 11.2219 14.3137 11.2974 14.4291 11.3589C14.5691 11.4336 14.7202 11.4875 15.0547 11.607C18.6257 12.0102 22.4799 9.7676 25.3313 7.83581C27.441 6.35952 30.1224 4.37402 30.6105 1.69397C30.6416 1.45356 30.6593 1.31613 30.6328 1.18782C30.5975 1.01658 30.4834 0.861601 30.2169 0.499778C29.6666 0.0816396 29.348 7.95254e-05 28.663 0ZM32.678 12.7465C33.4183 13.3197 33.8258 13.7714 34.0002 14.6855C33.9933 17.0204 33.314 18.5685 31.6731 20.2779C30.322 21.5728 28.6692 22.8123 26.7323 22.9359L26.319 22.9625C25.3922 22.9969 24.728 22.9603 23.9435 22.413C23.0092 21.4609 22.8258 20.7875 22.8199 19.4648C22.8731 17.5019 24.0156 16.0354 25.3515 14.6916C27.2674 12.9217 30.1429 11.4596 32.678 12.7465ZM3.37683 15.2674H2.50536C2.10849 15.9525 2.10506 16.4934 2.12545 17.2704C2.35675 20.4985 5.38343 23.5133 7.61156 25.6196L7.90849 25.8994C9.25352 27.1866 10.6507 28.3795 12.1349 29.5032L12.4402 29.7339C16.7836 33.0607 22.305 36.3333 27.9524 35.8342C28.6632 35.5692 29.1902 35.1279 29.521 34.4398C29.6719 33.3276 29.5826 32.3475 29.1724 31.3025C27.1229 27.1984 22.3617 21.3411 17.8433 19.7991L17.669 20.322C19.015 21.409 20.273 22.5232 21.4163 23.8242L21.8521 24.3307L21.9119 24.3997L21.9119 24.3998C22.9444 25.5894 24.0815 26.8999 24.3868 28.4811C24.4235 29.1639 24.4277 29.5749 23.9763 30.1042H23.9763H23.9762C21.9 30.0901 20.8456 30.0829 19.8534 29.8307C18.8295 29.5706 17.8719 29.0496 15.926 27.9909C11.2402 25.3262 5.0656 21.1127 3.47419 15.6453L3.37683 15.2674ZM22.7237 46.8143C22.3639 43.4641 21.2524 39.8945 18.5733 37.6856C14.7285 35.0371 10.4847 37.3943 7.79358 40.5574L7.38576 41.0626C2.4827 47.0523 0.0289299 55.0356 0.00031614 62.7279L2.89118e-05 63.0782C-0.00478327 66.4887 0.590861 69.4955 1.98263 72.6099C2.17931 72.6203 2.28254 72.6257 2.38579 72.6262C2.49986 72.6268 2.61396 72.6213 2.8541 72.6099C3.05063 72.4134 3.13636 72.3276 3.18272 72.2243C3.2186 72.1443 3.2309 72.0537 3.25273 71.8931L3.26261 71.4348L3.27741 70.9208C3.44077 63.6245 4.8711 56.1454 8.57808 49.7696L8.78012 49.4287C10.1206 47.1662 11.9027 44.5153 14.5318 43.677C15.7663 43.5395 16.8039 43.5433 17.887 44.189C19.948 45.7151 20.6094 48.345 21.0461 50.7393C21.1773 51.4701 21.3386 52.1909 21.5036 52.9146L21.5037 52.9146L21.5039 52.9147C21.7028 52.967 21.8061 52.9942 21.9106 53.0156C22.0234 53.0387 22.1376 53.055 22.3751 53.0889L22.3751 53.0889L22.3751 53.0889C22.4733 52.9907 22.5484 52.9156 22.6059 52.8289C22.7935 52.5462 22.7947 52.14 22.8001 50.4103L22.7999 50.0061C22.801 48.9412 22.792 47.8773 22.7237 46.8143Z" fill="#02DB91"/>
<path d="M209.635 70.6408V70.8408H209.835H211.053H211.253V70.6408V67.7063L212.86 70.1081L212.92 70.1968H213.027H213.615H213.723L213.782 70.1057L215.378 67.6459L215.389 70.6415L215.389 70.8408H215.589H216.807H217.007L217.007 70.6403L216.993 64.8303L216.992 64.6308H216.793H215.757H215.648L215.589 64.722L213.337 68.1934L211.037 64.7204L210.978 64.6308H210.871H209.835H209.635V64.8308V70.6408ZM205.505 70.6408V70.8408H205.705H206.993H207.193V70.6408V66.0528H209.037H209.237V65.8528V64.8308V64.6308H209.037H203.661H203.461V64.8308V65.8528V66.0528H203.661H205.505V70.6408Z" fill="#00E392" stroke="black" stroke-width="0.4"/>
<path d="M198.262 74.4149L198.262 74.4149L198.265 74.4166C198.923 74.7606 199.684 74.9293 200.541 74.9293C201.216 74.9293 201.821 74.8233 202.353 74.6065L202.353 74.6065L202.355 74.6058C202.894 74.3801 203.345 74.059 203.703 73.6414L203.816 73.5103L203.702 73.38L202.764 72.302L202.619 72.1346L202.467 72.2968C202.225 72.5563 201.951 72.7438 201.645 72.8629C201.335 72.9832 200.983 73.0453 200.583 73.0453C200.124 73.0453 199.726 72.9571 199.385 72.7864C199.044 72.6162 198.784 72.3762 198.599 72.0651C198.523 71.9364 198.462 71.7993 198.416 71.6533H204.027H204.206L204.226 71.4754C204.236 71.3864 204.241 71.2937 204.241 71.1973C204.251 71.1027 204.255 71.0152 204.255 70.9353C204.255 70.1231 204.086 69.4066 203.74 68.793C203.395 68.1829 202.921 67.7082 202.319 67.3726C201.716 67.0368 201.033 66.8713 200.275 66.8713C199.499 66.8713 198.797 67.0415 198.176 67.3865L198.176 67.3865L198.175 67.3871C197.565 67.7314 197.082 68.2096 196.728 68.8189L196.728 68.8189L196.728 68.8198C196.382 69.4234 196.211 70.1166 196.211 70.8933C196.211 71.6622 196.387 72.3555 196.742 72.9677L196.742 72.9677L196.744 72.9698C197.108 73.5805 197.616 74.0625 198.262 74.4149ZM202.162 70.0913H198.387C198.427 69.9236 198.485 69.7706 198.561 69.6315C198.731 69.3261 198.957 69.0919 199.242 68.9243C199.534 68.7576 199.876 68.6713 200.275 68.6713C200.665 68.6713 200.997 68.7575 201.28 68.9237L201.28 68.9237L201.282 68.9249C201.578 69.0939 201.809 69.3249 201.978 69.6205C202.06 69.7648 202.122 69.9214 202.162 70.0913Z" fill="#00E392" stroke="black" stroke-width="0.4"/>
<path d="M192.672 74.2438L192.673 74.2453C193.169 74.7105 193.859 74.9294 194.714 74.9294C195.049 74.9294 195.375 74.885 195.692 74.7959C196.013 74.7057 196.291 74.5683 196.521 74.3802L196.633 74.2879L196.58 74.1522L196.09 72.9062L195.992 72.6561L195.78 72.8222C195.56 72.995 195.28 73.0874 194.924 73.0874C194.641 73.0874 194.442 73.0045 194.301 72.8573C194.168 72.7092 194.088 72.4883 194.088 72.1674V68.8114H195.89H196.09V68.6114V67.2114V67.0114H195.89H194.088V65.5034V65.3034H193.888H192.138H191.938V65.5034V67.0114H190.906H190.706V67.2114V68.6114V68.8114H190.906H191.938V72.2094C191.938 73.0754 192.172 73.7653 192.672 74.2438Z" fill="#00E392" stroke="black" stroke-width="0.4"/>
<path d="M188.213 74.6312V74.8312H188.413H190.163H190.363V74.6312V67.1552V66.9552H190.163H188.413H188.213V67.1552V74.6312ZM188.342 65.7567L188.342 65.7567L188.345 65.7598C188.601 66.0044 188.922 66.1232 189.295 66.1232C189.675 66.1232 190 66.0054 190.248 65.7567L190.249 65.7567L190.252 65.7535C190.494 65.5001 190.615 65.1886 190.615 64.8312C190.615 64.4867 190.485 64.1944 190.228 63.9694C189.98 63.7347 189.663 63.6232 189.295 63.6232C188.923 63.6232 188.601 63.7421 188.345 63.9866C188.098 64.2225 187.975 64.5231 187.975 64.8732C187.975 65.2158 188.099 65.514 188.342 65.7567Z" fill="#00E392" stroke="black" stroke-width="0.4"/>
<path d="M180.838 74.5582L180.838 74.5582L180.841 74.5595C181.358 74.808 181.948 74.9293 182.608 74.9293C183.217 74.9293 183.78 74.7964 184.296 74.5288L184.296 74.5288L184.299 74.5274C184.487 74.4258 184.66 74.3082 184.816 74.1747V74.6313V74.8313H185.016H186.682H186.882V74.6313V67.1553V66.9553H186.682H184.932H184.732V67.1553V70.9353C184.732 71.4069 184.647 71.7881 184.489 72.0879L184.489 72.0879L184.487 72.0918C184.336 72.394 184.125 72.6147 183.856 72.7617L183.856 72.7617L183.854 72.763C183.59 72.9111 183.271 72.9893 182.888 72.9893C182.37 72.9893 181.994 72.84 181.733 72.5642C181.481 72.2792 181.338 71.8322 181.338 71.1873V67.1553V66.9553H181.138H179.388H179.188V67.1553V71.4253C179.188 72.195 179.327 72.8512 179.618 73.3833L179.618 73.3833L179.619 73.3847C179.909 73.9042 180.316 74.2971 180.838 74.5582Z" fill="#00E392" stroke="black" stroke-width="0.4"/>
<path d="M176.141 69.1194C175.727 68.9971 175.308 68.8888 174.884 68.7946C174.468 68.6928 174.09 68.5912 173.749 68.4899C173.434 68.3937 173.185 68.2656 172.996 68.1103C172.838 67.9651 172.757 67.7788 172.757 67.5334C172.757 67.3222 172.815 67.14 172.928 66.9802C173.049 66.8228 173.242 66.6836 173.525 66.5719C173.812 66.4626 174.195 66.4034 174.685 66.4034C175.094 66.4034 175.524 66.4656 175.975 66.592L175.975 66.592L175.979 66.593C176.426 66.7093 176.861 66.893 177.285 67.1452L177.485 67.2644L177.572 67.0486L178.146 65.6346L178.208 65.4819L178.07 65.3919C177.62 65.0982 177.095 64.8756 176.499 64.7218C175.904 64.5683 175.304 64.4914 174.699 64.4914C173.785 64.4914 173.012 64.6292 172.39 64.9154C171.783 65.1895 171.317 65.567 171.003 66.0529L171.003 66.0529L171.002 66.0538C170.701 66.5254 170.551 67.0482 170.551 67.6174C170.551 68.1666 170.664 68.6364 170.904 69.0131C171.135 69.3744 171.432 69.6667 171.795 69.8881L171.795 69.8882L171.8 69.8913C172.159 70.0948 172.55 70.2635 172.972 70.398L172.972 70.3981L172.978 70.3995C173.401 70.5219 173.82 70.6302 174.235 70.7244L174.236 70.7246C174.65 70.8168 175.021 70.9177 175.35 71.0271L175.35 71.0272L175.356 71.0291C175.681 71.1257 175.934 71.2587 176.122 71.4223L176.122 71.4224L176.126 71.4256C176.291 71.5619 176.375 71.7414 176.375 71.9854C176.375 72.1828 176.316 72.3591 176.193 72.5203C176.075 72.6675 175.879 72.7988 175.584 72.9028C175.297 73.0044 174.906 73.0594 174.405 73.0594C173.821 73.0594 173.251 72.9607 172.694 72.7629C172.131 72.5632 171.666 72.316 171.295 72.0241L171.093 71.8656L170.988 72.1L170.358 73.514L170.297 73.6516L170.412 73.7485C170.849 74.1155 171.43 74.4107 172.146 74.6399L172.148 74.6406L176.085 69.3114M176.141 69.1194C176.141 69.1195 176.141 69.1195 176.142 69.1196L176.085 69.3114M176.141 69.1194C176.141 69.1194 176.141 69.1193 176.141 69.1193L176.085 69.3114M176.141 69.1194C176.574 69.2446 176.967 69.4092 177.319 69.6141M176.085 69.3114C176.505 69.4327 176.883 69.5914 177.219 69.7874M177.319 69.6141C177.318 69.6139 177.318 69.6137 177.318 69.6135L177.219 69.7874M177.319 69.6141C177.319 69.6143 177.319 69.6145 177.32 69.6147L177.219 69.7874M177.319 69.6141L177.219 69.7874M177.387 66.9734C177.329 66.9388 177.27 66.9054 177.212 66.8732L177.202 66.8982L177.387 66.9734ZM177.387 66.9734L177.489 66.8016C177.481 66.7964 177.472 66.7912 177.463 66.786L177.387 66.9734ZM178.215 70.4794C178.214 70.4789 178.214 70.4783 178.214 70.4777L178.045 70.5854L178.216 70.4811C178.215 70.4806 178.215 70.48 178.215 70.4794ZM178.101 73.4235C178.101 73.4233 178.101 73.4232 178.102 73.423L177.933 73.3154L178.101 73.4239C178.101 73.4238 178.101 73.4236 178.101 73.4235Z" fill="#00E392" stroke="black" stroke-width="0.4"/>
<path d="M163.679 67.4857V67.0993V66.8993H163.479H161.393H161.193V67.0993V77.3473V77.5473H161.393H163.577H163.777V77.3473V74.2912C163.872 74.3657 163.973 74.4339 164.078 74.4957C164.589 74.7963 165.18 74.9433 165.845 74.9433C166.585 74.9433 167.254 74.7775 167.847 74.4416C168.449 74.1062 168.922 73.632 169.267 73.0227C169.623 72.4085 169.797 71.6869 169.797 70.8653C169.797 70.0526 169.623 69.3357 169.267 68.7219C168.923 68.113 168.449 67.6389 167.848 67.3036C167.255 66.9581 166.586 66.7873 165.845 66.7873C165.154 66.7873 164.548 66.9335 164.036 67.2349C163.909 67.3093 163.79 67.3929 163.679 67.4857ZM166.333 72.5263L166.333 72.5263L166.33 72.5278C166.085 72.6751 165.799 72.7513 165.467 72.7513C165.135 72.7513 164.844 72.6751 164.587 72.5263C164.332 72.3778 164.129 72.1676 163.977 71.8906C163.828 71.6075 163.749 71.2678 163.749 70.8653C163.749 70.4519 163.828 70.1132 163.977 69.8411C164.128 69.5636 164.331 69.353 164.587 69.2043C164.844 69.0555 165.135 68.9793 165.467 68.9793C165.799 68.9793 166.085 69.0555 166.33 69.2028L166.33 69.2028L166.333 69.2043C166.589 69.353 166.792 69.5636 166.943 69.8411L166.943 69.8411L166.946 69.8451C167.102 70.1164 167.185 70.4535 167.185 70.8653C167.185 71.2667 167.102 71.6052 166.944 71.8877L166.944 71.8877L166.943 71.8895C166.792 72.167 166.589 72.3776 166.333 72.5263Z" fill="white" stroke="black" stroke-width="0.4"/>
<path d="M154.013 67.4857V67.0993V66.8993H153.813H151.727H151.527V67.0993V77.3473V77.5473H151.727H153.911H154.111V77.3473V74.2912C154.206 74.3657 154.307 74.4339 154.412 74.4957C154.923 74.7963 155.514 74.9433 156.179 74.9433C156.919 74.9433 157.588 74.7775 158.181 74.4416C158.783 74.1062 159.256 73.632 159.601 73.0227C159.957 72.4085 160.131 71.6869 160.131 70.8653C160.131 70.0526 159.957 69.3357 159.601 68.7219C159.257 68.113 158.783 67.6389 158.182 67.3036C157.589 66.9581 156.92 66.7873 156.179 66.7873C155.488 66.7873 154.882 66.9335 154.37 67.2349C154.243 67.3093 154.124 67.3929 154.013 67.4857ZM156.667 72.5263L156.667 72.5263L156.664 72.5278C156.419 72.6751 156.133 72.7513 155.801 72.7513C155.469 72.7513 155.178 72.6751 154.921 72.5263C154.666 72.3778 154.463 72.1676 154.311 71.8906C154.162 71.6075 154.083 71.2678 154.083 70.8653C154.083 70.4519 154.162 70.1132 154.311 69.8411C154.462 69.5636 154.665 69.353 154.921 69.2043C155.178 69.0555 155.469 68.9793 155.801 68.9793C156.133 68.9793 156.419 69.0555 156.664 69.2028L156.664 69.2028L156.667 69.2043C156.923 69.353 157.126 69.5636 157.277 69.8411L157.277 69.8411L157.28 69.8451C157.436 70.1164 157.519 70.4535 157.519 70.8653C157.519 71.2667 157.436 71.6052 157.278 71.8877L157.278 71.8877L157.277 71.8895C157.126 72.167 156.923 72.3776 156.667 72.5263Z" fill="white" stroke="black" stroke-width="0.4"/>
<path d="M139.692 74.5494L139.566 74.8308H139.874H142.198H142.332L142.383 74.7076L143.205 72.7308H147.481L148.299 74.7074L148.351 74.8308H148.484H150.864H151.173L151.047 74.5492L146.665 64.7492L146.612 64.6308H146.482H144.242H144.112L144.06 64.7494L139.692 74.5494ZM145.347 67.5799L146.602 70.6088H144.087L145.347 67.5799Z" fill="white" stroke="black" stroke-width="0.4"/>
<path d="M136.776 67.8313H136.972L136.976 67.6354L137.2 56.6354L137.204 56.4313H137H133H132.796L132.8 56.6354L133.025 67.6354L133.029 67.8313H133.225H136.776Z" fill="white" stroke="black" stroke-width="0.4"/>
<path d="M137.329 73.9242L137.329 73.9242L137.331 73.9225C137.911 73.306 138.2 72.5478 138.2 71.6609C138.2 70.7495 137.913 69.9776 137.331 69.3598C136.744 68.7364 135.96 68.4313 135 68.4313C134.018 68.4313 133.225 68.7353 132.649 69.3615C132.081 69.9794 131.8 70.7508 131.8 71.6609C131.8 72.5465 132.082 73.3041 132.649 73.9209L132.649 73.9209L132.651 73.9225C133.227 74.5349 134.019 74.8313 135 74.8313C135.958 74.8313 136.742 74.5338 137.329 73.9242Z" fill="#C9F305" stroke="black" stroke-width="0.4"/>
<path d="M126.089 70.7355L126.089 70.7355L126.093 70.7421C126.164 70.855 126.203 70.989 126.203 71.1509C126.203 71.3095 126.162 71.4526 126.08 71.5847L126.08 71.5846L126.077 71.5907C126.002 71.7207 125.884 71.8429 125.71 71.9541C125.531 72.0643 125.291 72.1588 124.986 72.2335C124.692 72.2995 124.341 72.3337 123.93 72.3337C123.592 72.3337 123.262 72.2999 122.94 72.2326C122.632 72.1664 122.36 72.0607 122.123 71.9173L122.123 71.9173L122.12 71.9151C121.888 71.7817 121.7 71.6076 121.553 71.3915C121.411 71.1746 121.327 70.9124 121.305 70.5982L121.293 70.4118H121.106H118H117.8V70.6118C117.8 71.1609 117.934 71.7062 118.195 72.2459L118.195 72.246L118.197 72.2492C118.469 72.7846 118.862 73.2589 119.374 73.6729C119.888 74.0969 120.519 74.4354 121.263 74.6916L121.264 74.6918C122.023 74.9502 122.889 75.0774 123.86 75.0774C124.741 75.0774 125.544 74.9822 126.267 74.7894L126.267 74.7894L126.269 74.7889C126.989 74.5888 127.612 74.3109 128.133 73.9524L128.134 73.9516C128.648 73.5928 129.048 73.1653 129.33 72.6679C129.621 72.1604 129.767 71.6066 129.767 71.0103C129.767 70.3711 129.623 69.81 129.327 69.3357C129.045 68.8627 128.652 68.463 128.153 68.136L128.153 68.136L128.151 68.1347C127.656 67.8181 127.072 67.5611 126.401 67.3615C125.736 67.1635 125.016 67.0016 124.243 66.8754L124.243 66.8753L124.24 66.8749C123.715 66.7977 123.289 66.7097 122.957 66.612C122.624 66.5059 122.375 66.3922 122.203 66.2746L122.203 66.2744L122.195 66.2696C122.013 66.1578 121.905 66.0426 121.848 65.9303C121.784 65.7945 121.751 65.6487 121.751 65.4907C121.751 65.3357 121.786 65.1923 121.856 65.0577C121.935 64.9146 122.047 64.7885 122.196 64.6798L122.196 64.6798L122.198 64.6781C122.36 64.5569 122.577 64.4568 122.856 64.3834C123.132 64.3107 123.462 64.2728 123.848 64.2728C124.301 64.2728 124.675 64.3296 124.976 64.4369L124.976 64.4369L124.977 64.4374C125.292 64.547 125.528 64.6888 125.697 64.8568C125.818 64.9858 125.909 65.1303 125.969 65.2914L125.969 65.2914L125.97 65.2941C126.031 65.4485 126.062 65.6188 126.062 65.8071V66.0071H126.262H129.52H129.72V65.8071C129.72 65.1907 129.584 64.6161 129.311 64.0866C129.038 63.5579 128.647 63.1018 128.141 62.7181L128.141 62.718L128.138 62.7159C127.624 62.3405 127.004 62.0502 126.283 61.8418C125.558 61.6245 124.746 61.5173 123.848 61.5173C122.988 61.5173 122.209 61.6248 121.515 61.8429C120.825 62.0595 120.232 62.3544 119.742 62.7304C119.252 63.1057 118.873 63.5455 118.608 64.0502C118.344 64.5545 118.21 65.0863 118.21 65.6431C118.21 66.2131 118.339 66.7254 118.601 67.1737L118.601 67.1737L118.602 67.1761C118.868 67.6157 119.231 67.9982 119.688 68.3247C120.143 68.6575 120.683 68.9388 121.306 69.1704L121.306 69.1704L121.308 69.1714C121.936 69.3938 122.625 69.5798 123.375 69.7298L123.375 69.7298L123.378 69.7303C123.96 69.839 124.438 69.9471 124.812 70.0541C125.186 70.1608 125.478 70.2727 125.696 70.388C125.905 70.5111 126.027 70.6293 126.089 70.7355Z" fill="white" stroke="black" stroke-width="0.4"/>
<path d="M107.066 64.554H109.76V70.1196C109.76 70.9721 109.872 71.7152 110.101 72.3442L110.101 72.345C110.329 72.9632 110.657 73.4784 111.087 73.8849C111.509 74.2974 112.015 74.6014 112.604 74.7976L112.604 74.7977L112.607 74.7987C113.198 74.9847 113.949 75.0915 114.568 75.0774H116H116.2V74.8774V72.2056V72.0056H116H115.468C115.14 72.0056 114.846 71.9683 114.585 71.8959C114.342 71.8262 114.137 71.7093 113.966 71.5457L113.966 71.5456L113.963 71.5428C113.797 71.3898 113.661 71.1781 113.56 70.8987C113.467 70.6128 113.418 70.2494 113.418 69.8032V64.554H116H116.2V64.354V61.9517V61.7517H116H113.418V58.8462V58.6462H113.218H109.96H109.76V58.8462V61.7517H107.066H106.866V61.9517V64.354V64.554H107.066Z" fill="white" stroke="black" stroke-width="0.4"/>
<path d="M91.3196 71.2144L91.3196 71.2144C91.0047 70.4393 90.8479 69.6128 90.8479 68.7368V68.2681C90.8479 67.2783 91.0035 66.371 91.318 65.5485C91.6312 64.7212 92.0705 64.0068 92.6369 63.408C93.2031 62.8094 93.8744 62.3446 94.649 62.0138C95.4258 61.6821 96.2692 61.5173 97.1768 61.5173C98.1125 61.5173 98.9522 61.6732 99.6918 61.99C100.436 62.2975 101.069 62.7357 101.59 63.305L101.591 63.3061C102.103 63.8755 102.491 64.5602 102.757 65.3566M91.3196 71.2144L102.567 65.4204M91.3196 71.2144L91.3206 71.2168C91.6433 71.9834 92.1 72.6506 92.6902 73.2167M91.3196 71.2144L92.6902 73.2167M102.757 65.3566C102.757 65.3568 102.757 65.357 102.757 65.3572L102.567 65.4204M102.757 65.3566C102.757 65.3566 102.757 65.3566 102.757 65.3566L102.567 65.4204M102.757 65.3566C103.023 66.1457 103.154 67.0152 103.154 67.9634V69.3462V69.5462H102.954H94.5958M102.567 65.4204C102.825 66.186 102.954 67.0337 102.954 67.9634V69.1462V69.3462H102.754H94.5525V69.3599C94.5665 69.4238 94.5809 69.4859 94.5958 69.5462M94.5958 69.5462H94.39C94.4934 69.9787 94.6215 70.3339 94.7744 70.6118M94.5958 69.5462C94.6942 69.9451 94.8129 70.2665 94.9491 70.5145M94.9491 70.5145C94.949 70.5142 94.9488 70.5139 94.9486 70.5136L94.7744 70.6118M94.9491 70.5145C95.1087 70.797 95.3237 71.0565 95.5967 71.2926L95.597 71.2928C95.8748 71.5341 96.1934 71.7212 96.5543 71.8538C96.9127 71.9854 97.3071 72.0524 97.7393 72.0524C98.354 72.0524 98.9497 71.9364 99.5278 71.7036C100.098 71.4739 100.557 71.1315 100.909 70.6769L101.054 70.4903L101.214 70.6634L102.843 72.4212L102.953 72.5401L102.86 72.6726C102.422 73.2925 101.737 73.8421 100.821 74.3276C99.8886 74.8223 98.7926 75.0657 97.54 75.0657C96.5414 75.0657 95.6289 74.9019 94.8053 74.5708C93.9864 74.2417 93.2805 73.7906 92.6902 73.2167M94.9491 70.5145C94.9493 70.5148 94.9495 70.5151 94.9497 70.5154L94.7744 70.6118M94.7744 70.6118L92.6902 73.2167M96.2214 64.7383L96.2214 64.7383L96.2254 64.7366C96.5024 64.6158 96.8107 64.554 97.1533 64.554C97.5463 64.554 97.882 64.617 98.1649 64.7373L98.1649 64.7374L98.1705 64.7395C98.4673 64.8554 98.7122 65.0125 98.9091 65.209C99.1089 65.4163 99.2667 65.6598 99.3823 65.9416C99.497 66.2212 99.5549 66.5195 99.5549 66.8384V66.8962H94.6579C94.73 66.5902 94.8256 66.3102 94.944 66.0555C95.0918 65.7378 95.2749 65.4677 95.4924 65.2431L95.4924 65.2431L95.4947 65.2406C95.7018 65.0193 95.9435 64.8523 96.2214 64.7383Z" fill="white" stroke="black" stroke-width="0.4"/>
<path d="M83.6082 74.6523L83.6271 74.8313H83.8071H86.7603H86.9603V74.6313V61.9517V61.7517H86.7603H83.4907H83.2907V61.9517V70.7981C83.2007 70.9708 83.0955 71.1269 82.9756 71.2668C82.8476 71.4162 82.7022 71.5439 82.5391 71.6505C82.349 71.7699 82.1235 71.8637 81.8602 71.9295L81.8589 71.9298C81.6048 71.9952 81.3134 72.029 80.9829 72.029C80.6152 72.029 80.3149 71.9838 80.0768 71.8998C79.8472 71.8188 79.6653 71.6858 79.5257 71.4996L79.5257 71.4996L79.5236 71.4968C79.3832 71.3163 79.272 71.0657 79.1981 70.7346C79.1315 70.4005 79.097 69.9817 79.097 69.4751V61.9517V61.7517H78.897H75.6392H75.4392V61.9517V69.4517C75.4392 70.4262 75.546 71.2713 75.7644 71.983L75.7643 71.983L75.7652 71.9856C75.9906 72.6859 76.3073 73.2704 76.7199 73.7327C77.1319 74.2022 77.6281 74.5455 78.2062 74.7602C78.778 74.9726 79.4035 75.0774 80.0806 75.0774C80.8342 75.0774 81.5298 74.8886 82.163 74.5104C82.6582 74.2184 83.0951 73.8406 83.4742 73.3789L83.6082 74.6523Z" fill="white" stroke="black" stroke-width="0.4"/>
<path d="M62.1215 62.0071L62.1215 62.0071L62.1206 62.0076C61.4756 62.3342 60.9324 62.7918 60.4925 63.3784C60.0455 63.9717 59.7112 64.679 59.4868 65.4964C59.2626 66.313 59.1516 67.21 59.1516 68.186V68.4321C59.1516 69.3698 59.2628 70.2435 59.487 71.052L59.4869 71.052L59.4876 71.0542C59.7197 71.8547 60.0535 72.5525 60.4912 73.1443C60.9304 73.746 61.4727 74.2193 62.117 74.5619L62.1188 74.5628C62.7684 74.8999 63.5078 75.0657 64.332 75.0657C64.7198 75.0657 65.0827 75.0254 65.4197 74.9435C65.7609 74.8702 66.0762 74.7639 66.3647 74.6237L66.3648 74.6238L66.3694 74.6214C66.5908 74.5066 66.8036 74.3715 67.0077 74.2164C67.0826 74.1595 67.1553 74.0998 67.2258 74.0375V79.5063V79.7063H67.4258H70.6953H70.8953V79.5063V61.9517V61.7517H70.6953H67.8242H67.6528L67.6266 61.9211L67.4924 62.7893C67.4074 62.7018 67.3197 62.6185 67.2294 62.5394C67.0328 62.3674 66.8236 62.2156 66.602 62.0843L66.602 62.0843L66.6002 62.0833C66.2867 61.9017 65.9418 61.7624 65.5667 61.6645C65.196 61.5657 64.7918 61.5173 64.3555 61.5173C63.5244 61.5173 62.7782 61.6788 62.1215 62.0071ZM63.3685 71.0157L63.3685 71.0157L63.3675 71.014C63.1775 70.6925 63.0361 70.3117 62.946 69.8688C62.8552 69.4224 62.8094 68.9437 62.8094 68.4321V68.186C62.8094 67.659 62.8552 67.1729 62.9457 66.7272C63.0434 66.2769 63.1922 65.8929 63.3892 65.5719L63.3892 65.5719L63.3909 65.569C63.5785 65.2516 63.8175 65.0066 64.108 64.8295L64.108 64.8295L64.1092 64.8287C64.4 64.6487 64.7565 64.554 65.1875 64.554C65.4478 64.554 65.6818 64.58 65.8906 64.6305L65.8906 64.6305L65.8921 64.6308C66.1103 64.6817 66.2986 64.7534 66.459 64.8439C66.6287 64.943 66.7761 65.0626 66.9021 65.2026L66.9021 65.2027L66.9056 65.2064C67.0233 65.3306 67.1301 65.474 67.2258 65.6376V70.9239C67.1291 71.097 67.0206 71.2535 66.9005 71.3939C66.7752 71.5327 66.6289 71.6514 66.4605 71.75C66.2899 71.8421 66.0956 71.918 65.8765 71.9766C65.6687 72.0265 65.4316 72.0524 65.1641 72.0524C64.7335 72.0524 64.3773 71.9579 64.0866 71.7782C63.7959 71.5937 63.5564 71.341 63.3685 71.0157Z" fill="white" stroke="black" stroke-width="0.4"/>
<path d="M51.8967 71.0122L51.8967 71.0123C52.004 70.8044 52.0527 70.5707 52.0388 70.3059L52.0277 70.0954H52.2385H55.3088H55.5041L55.5088 70.2906C55.5252 70.9786 55.3817 71.6209 55.0771 72.214C54.7832 72.8014 54.3789 73.3074 53.8658 73.7309C53.3542 74.1532 52.7592 74.4845 52.0831 74.7259L52.0818 74.7264C51.411 74.9608 50.7011 75.0774 49.9534 75.0774C48.9469 75.0774 48.0551 74.9097 47.2827 74.5682L47.2811 74.5675C46.5143 74.2204 45.8728 73.7463 45.3602 73.1444M51.8967 71.0122L45.512 73.0142M51.8967 71.0122L51.8944 71.0169C51.7909 71.2308 51.6427 71.4141 51.447 71.5678C51.2484 71.7239 51.0159 71.8461 50.7471 71.9333C50.4791 72.0202 50.1953 72.0642 49.8948 72.0642C49.398 72.0642 49.0036 71.9642 48.6995 71.7778C48.3929 71.5851 48.151 71.3291 47.972 71.0069L47.972 71.0068L47.9693 71.0023C47.7803 70.6824 47.647 70.3076 47.5724 69.875C47.4963 69.4257 47.4581 68.9605 47.4581 68.479V68.1274C47.4581 67.6544 47.4962 67.1976 47.5721 66.7568C47.6544 66.3235 47.7918 65.9434 47.982 65.6142L47.982 65.6142L47.9837 65.6113C48.1628 65.2888 48.4051 65.0325 48.7121 64.8398C49.0079 64.654 49.394 64.554 49.8831 64.554C50.2104 64.554 50.508 64.6121 50.7781 64.7258L50.7781 64.7259L50.7823 64.7275C51.0571 64.836 51.2882 64.9826 51.4787 65.166C51.6681 65.3484 51.8123 65.566 51.9115 65.821C52.0103 66.0751 52.053 66.3437 52.0388 66.6292L52.0283 66.8392H52.2385H55.3088H55.5047L55.5088 66.6433C55.5249 65.8684 55.3958 65.1632 55.117 64.5315C54.8404 63.8971 54.4529 63.3541 53.9545 62.9047L53.9545 62.9047L53.9519 62.9024C53.4468 62.4624 52.85 62.1222 52.1645 61.8802C51.4768 61.6375 50.7314 61.5173 49.9299 61.5173C48.9305 61.5173 48.0421 61.6892 47.2693 62.039L47.2686 62.0393C46.5096 62.3865 45.8688 62.8604 45.349 63.4615C44.8301 64.0614 44.4425 64.7652 44.1849 65.5701M51.8967 71.0122L47.3518 62.2212C46.6174 62.5571 46.0002 63.0142 45.5002 63.5923C45.0002 64.1704 44.6252 64.8501 44.3752 65.6313M45.3602 73.1444C45.36 73.1442 45.3599 73.144 45.3597 73.1438L45.512 73.0142M45.3602 73.1444C45.3604 73.1446 45.3605 73.1448 45.3607 73.145L45.512 73.0142M45.3602 73.1444C44.8422 72.5453 44.451 71.8464 44.1855 71.0501L44.1847 71.0478L44.1848 71.0478C43.9279 70.2452 43.8002 69.3885 43.8002 68.479V68.1274C43.8002 67.218 43.9279 66.3651 44.1849 65.5701M45.512 73.0142C45.012 72.436 44.6331 71.7603 44.3752 70.9868C44.1252 70.2056 44.0002 69.3696 44.0002 68.479V68.1274C44.0002 67.2368 44.1252 66.4048 44.3752 65.6313M44.1849 65.5701C44.1848 65.5702 44.1848 65.5703 44.1848 65.5704L44.3752 65.6313M44.1849 65.5701C44.1849 65.57 44.1849 65.5699 44.1849 65.5698L44.3752 65.6313M52.2385 70.2954H52.4388C52.4386 70.2919 52.4384 70.2884 52.4382 70.2849L52.2385 70.2954ZM52.2385 70.2954V70.4893C52.242 70.426 52.242 70.3614 52.2385 70.2954Z" fill="white" stroke="black" stroke-width="0.4"/>
<path d="M36.2268 74.6313C36.1487 74.4751 36.0823 74.2954 36.0276 74.0923C35.9729 73.8892 35.926 73.6743 35.887 73.4478C35.7073 73.6431 35.5002 73.8267 35.2659 73.9985C35.0315 74.1704 34.7737 74.3188 34.4924 74.4438C34.2034 74.5767 33.887 74.6782 33.5432 74.7485C33.1995 74.8267 32.8284 74.8657 32.4299 74.8657C31.7815 74.8657 31.1838 74.772 30.637 74.5845C30.0979 74.397 29.6331 74.1353 29.2424 73.7993C28.8518 73.4634 28.5471 73.0649 28.3284 72.604C28.1096 72.1353 28.0002 71.6274 28.0002 71.0806C28.0002 70.3774 28.137 69.7563 28.4104 69.2173C28.6838 68.6704 29.094 68.2212 29.6409 67.8696C30.1331 67.5493 30.7385 67.3071 31.4573 67.1431C32.1838 66.9712 33.0159 66.8853 33.9534 66.8853H35.7698V66.1353C35.7698 65.8384 35.7229 65.5728 35.6292 65.3384C35.5354 65.0962 35.3948 64.8892 35.2073 64.7173C35.012 64.5376 34.7659 64.4009 34.469 64.3071C34.1799 64.2056 33.8401 64.1548 33.4495 64.1548C33.1057 64.1548 32.8088 64.1978 32.5588 64.2837C32.3088 64.3618 32.1057 64.4751 31.9495 64.6235C31.8088 64.7563 31.7034 64.9165 31.6331 65.104C31.5706 65.2915 31.5393 65.4985 31.5393 65.7251H28.2815C28.2815 65.186 28.3987 64.6743 28.6331 64.1899C28.8752 63.7056 29.2268 63.2798 29.6877 62.9126C30.1409 62.5454 30.6956 62.2563 31.3518 62.0454C32.0159 61.8267 32.7737 61.7173 33.6252 61.7173C34.3909 61.7173 35.1018 61.811 35.7581 61.9985C36.4221 62.186 36.9963 62.4634 37.4807 62.8306C37.9651 63.1978 38.344 63.6626 38.6174 64.2251C38.8909 64.7798 39.0276 65.4243 39.0276 66.1587V71.5962C39.0276 72.2759 39.0706 72.8384 39.1565 73.2837C39.2424 73.729 39.3674 74.1118 39.5315 74.4321V74.6313H36.2268ZM33.1213 72.3462C33.4495 72.3462 33.7542 72.3071 34.0354 72.229C34.3167 72.1509 34.5706 72.0493 34.7971 71.9243C35.0237 71.7993 35.219 71.6587 35.3831 71.5024C35.5471 71.3384 35.676 71.1743 35.7698 71.0103V68.8306H34.1057C33.5979 68.8306 33.1643 68.8813 32.8049 68.9829C32.4456 69.0767 32.1526 69.2095 31.926 69.3813C31.6995 69.561 31.5315 69.7759 31.4221 70.0259C31.3127 70.2681 31.2581 70.5337 31.2581 70.8228C31.2581 71.0493 31.2971 71.2603 31.3752 71.4556C31.4612 71.6431 31.5823 71.8032 31.7385 71.936C31.8948 72.061 32.0862 72.1626 32.3127 72.2407C32.5471 72.311 32.8167 72.3462 33.1213 72.3462Z" fill="white"/>
<path d="M15.3941 67.9061H12.206V74.6313H8.00024V56.6313H15.3043C16.5116 56.6313 17.6042 56.7509 18.5821 56.9899C19.56 57.2206 20.3981 57.5627 21.0966 58.016C21.7851 58.4693 22.3139 59.0338 22.6831 59.7096C23.0623 60.3855 23.2519 61.1684 23.2519 62.0585C23.2519 62.7014 23.1571 63.2824 22.9675 63.8017C22.7879 64.3127 22.5285 64.7701 22.1892 65.1739C21.84 65.586 21.4209 65.9445 20.932 66.2495C20.453 66.5544 19.9142 66.8182 19.3155 67.0407L24.0002 74.4706V74.6313H19.4951L15.3941 67.9061ZM12.206 65.0874H15.3192C15.9678 65.0874 16.5366 65.0132 17.0255 64.8649C17.5244 64.7083 17.9285 64.4857 18.2378 64.1973C18.4973 63.9665 18.6919 63.6904 18.8216 63.369C18.9613 63.0476 19.0311 62.689 19.0311 62.2934C19.0311 61.8154 18.9413 61.3951 18.7617 61.0324C18.5921 60.6616 18.3326 60.3566 17.9834 60.1176C17.6741 59.9033 17.2949 59.7385 16.8459 59.6231C16.3969 59.5077 15.883 59.45 15.3043 59.45H12.206V65.0874Z" fill="white"/>
</svg>
